<svg width="115" height="115" viewBox="0 0 115 115" fill="none" xmlns="http://www.w3.org/2000/svg">
  <g transform="translate(7.5, 7.5)">
    <!-- New logo shape based on the provided image -->
    <path d="M50 20C35 20 25 30 25 45C25 60 35 70 50 70C65 70 75 60 75 45C75 30 65 20 50 20Z" fill="none" stroke="#FFFFFF" stroke-width="3"/>
    <path d="M50 30C40 30 35 37.5 35 45C35 52.5 40 60 50 60C60 60 65 52.5 65 45C65 37.5 60 30 50 30Z" fill="none" stroke="#FFFFFF" stroke-width="3"/>
    <path d="M20 45C20 25 33.75 12.5 51.5 12.5C69.25 12.5 83 25 83 45" fill="none" stroke="#FFFFFF" stroke-width="3"/>
    <path d="M51.5 77.5C33.75 77.5 20 65 20 45" fill="none" stroke="#FFFFFF" stroke-width="3"/>
    <path d="M83 45C83 65 69.25 77.5 51.5 77.5" fill="none" stroke="#FFFFFF" stroke-width="3"/>
    <path d="M15 45L15 35C15 20 25 10 40 10L50 10" fill="none" stroke="#FFFFFF" stroke-width="3"/>
    <path d="M83 45L83 55C83 70 73 80 58 80L48 80" fill="none" stroke="#FFFFFF" stroke-width="3"/>
    <path d="M15 55L15 45" fill="none" stroke="#FFFFFF" stroke-width="3"/>
    <path d="M83 35L83 45" fill="none" stroke="#FFFFFF" stroke-width="3"/>
    <path d="M40 10L50 10C65 10 83 20 83 35" fill="none" stroke="#FFFFFF" stroke-width="3"/>
    <path d="M58 80L48 80C33 80 15 70 15 55" fill="none" stroke="#FFFFFF" stroke-width="3"/>
    
    <!-- Rainbow color accents at the ends -->
    <path d="M15 35C15 32 16 30 18 28" fill="none" stroke="url(#rainbow1)" stroke-width="3" stroke-linecap="round"/>
    <path d="M83 55C83 58 82 60 80 62" fill="none" stroke="url(#rainbow2)" stroke-width="3" stroke-linecap="round"/>
  </g>
  
  <!-- Gradient definitions -->
  <defs>
    <linearGradient id="rainbow1" x1="15" y1="35" x2="18" y2="28" gradientUnits="userSpaceOnUse">
      <stop offset="0" stop-color="#FF0000"/>
      <stop offset="0.2" stop-color="#FF7F00"/>
      <stop offset="0.4" stop-color="#FFFF00"/>
      <stop offset="0.6" stop-color="#00FF00"/>
      <stop offset="0.8" stop-color="#0000FF"/>
      <stop offset="1" stop-color="#8B00FF"/>
    </linearGradient>
    <linearGradient id="rainbow2" x1="83" y1="55" x2="80" y2="62" gradientUnits="userSpaceOnUse">
      <stop offset="0" stop-color="#FF0000"/>
      <stop offset="0.2" stop-color="#FF7F00"/>
      <stop offset="0.4" stop-color="#FFFF00"/>
      <stop offset="0.6" stop-color="#00FF00"/>
      <stop offset="0.8" stop-color="#0000FF"/>
      <stop offset="1" stop-color="#8B00FF"/>
    </linearGradient>
  </defs>
</svg>