<svg width="1000" height="200" viewBox="0 0 1000 200" fill="none" xmlns="http://www.w3.org/2000/svg">
  <!-- Logo Hexagon -->
  <g transform="translate(100, 50) scale(0.9)">
    <path d="M57.5 0L106.066 28.75V86.25L57.5 115L8.93398 86.25V28.75L57.5 0Z" fill="#000000"/>
    <path d="M57.5 11.5L94.566 34.75V81.25L57.5 104.5L20.434 81.25V34.75L57.5 11.5Z" stroke="#FF6B00" stroke-width="3"/>
    <path d="M57.5 23L83.066 40.75V76.25L57.5 94L31.934 76.25V40.75L57.5 23Z" stroke="#FF6B00" stroke-width="3"/>
    <path d="M57.5 34.5L71.566 46.75V71.25L57.5 83.5L43.434 71.25V46.75L57.5 34.5Z" stroke="#FF6B00" stroke-width="3"/>
    <path d="M57.5 46L59.566 52.75V66.25L57.5 73L48.434 66.25V52.75L57.5 46Z" stroke="#FF6B00" stroke-width="3"/>
  </g>
  
  <!-- Text -->
  <text x="220" y="110" font-family="Arial, sans-serif" font-weight="bold" font-size="70" fill="#000000">Pixen Flow</text>
  <text x="220" y="150" font-family="Arial, sans-serif" font-size="24" fill="#666666">The creative library of animated React components</text>
</svg>
